<?xml version="1.0" encoding="UTF-8"?>
<svg id="faviconn" data-name="faviconn" xmlns="http://www.w3.org/2000/svg" viewBox="0 0 664.02 663.77">
  
  <path fill='#f36d24' d="M89.29,558.33C-84.42,371.88,8.33,67.01,255.15,9.09c252.86-59.34,473.77,181.97,391.31,428.69-79.29,237.27-385.74,304.55-557.17,120.56ZM139.24,539.41c155.21,143.42,407.44,72.41,464.64-129.91C666.6,187.62,450.66-12.99,233.92,66.58,37.08,138.85-15.6,396.34,139.24,539.41Z"/>
  <path fill='#f36d24' d="M371.78,114.89c-16.03-15.73-43.46-14.33-57.51,3.28,4.59,5.99,10.04,11.16,14.32,17.43,14.15,20.77,23.17,51.23,24.6,76.28,4.48,78.55-63.83,115.87-85.44,185.32-13.12,42.17-6.05,105.26,15.96,143.85,14.57,25.56,46.07,30.92,65.37,7.61-23.51-23.15-36.85-59.28-38.87-92.04-5.53-89.76,85.6-130.1,91.87-217.74,2.26-31.61-6.86-100.97-30.3-123.99ZM467.75,131.76c-7.77,1.21-16.62,7.34-21.67,13.24,18.93,20.28,29.77,49.11,30.96,76.87,2.22,51.41-46.73,88.14-68.16,131.69-19.94,40.53-19.14,91.27-1.27,132.51,12.68,29.25,42.83,37.38,65.32,13.38-18.25-20.89-28.28-48.07-29.88-75.78-3.68-63.92,63.67-103.57,79.18-164.51,9.39-36.92,2.32-136.23-54.48-127.39ZM232.09,132.81c-8.83.76-17.51,5.03-23.63,11.32,8.41,12.72,15.31,24.4,19.34,39.33,9.96,36.9,5.02,64.39-17.06,94.79-25.3,34.83-59.64,62.32-71.83,105.96-7.9,28.29-7.09,85.53,9.07,110.78,12.42,19.41,43.42,22.47,58.28,4.44-19.73-24.45-25.41-56.87-22.89-87.74,4.01-49.04,70.72-94.01,89.64-144.08,13.19-34.9,15.98-139.68-40.93-134.81Z"/>
  <path fill='#f36d24' d="M371.78,114.89c23.44,23.01,32.56,92.38,30.3,123.99-6.26,87.65-97.4,127.98-91.87,217.74,2.02,32.75,15.36,68.88,38.87,92.04-19.31,23.32-50.8,17.95-65.37-7.61-22-38.59-29.08-101.68-15.96-143.85,21.61-69.46,89.92-106.77,85.44-185.32-1.43-25.05-10.45-55.51-24.6-76.28-4.28-6.28-9.73-11.44-14.32-17.43,14.04-17.61,41.48-19.01,57.51-3.28Z"/>
  <path fill='#f36d24' d="M232.09,132.81c56.91-4.87,54.11,99.91,40.93,134.81-18.92,50.07-85.64,95.04-89.64,144.08-2.52,30.87,3.15,63.29,22.89,87.74-14.86,18.03-45.86,14.97-58.28-4.44-16.16-25.25-16.97-82.49-9.07-110.78,12.18-43.64,46.53-71.13,71.83-105.96,22.08-30.4,27.02-57.89,17.06-94.79-4.03-14.93-10.93-26.61-19.34-39.33,6.12-6.29,14.8-10.56,23.63-11.32Z"/>
  <path fill='#f36d24' d="M467.75,131.76c56.8-8.84,63.87,90.47,54.48,127.39-15.51,60.94-82.86,100.59-79.18,164.51,1.6,27.71,11.63,54.9,29.88,75.78-22.49,24-52.64,15.87-65.32-13.38-17.87-41.23-18.68-91.98,1.27-132.51,21.43-43.54,70.38-80.27,68.16-131.69-1.2-27.76-12.03-56.59-30.96-76.87,5.05-5.9,13.9-12.04,21.67-13.24Z"/>
</svg>