<?xml version="1.0" encoding="UTF-8"?>
<svg id="ws_connect_icon" xmlns="http://www.w3.org/2000/svg" version="1.1" viewBox="0 0 63.54 63.65">
  <defs>
    <style>
      .st0_wsConnect {
        fill: #acacac;
      }

      .st1_wsConnect {
        fill: #FB8725;
      }
    </style>
  </defs>
  <path class="st0_wsConnect" d="M63.54,31.77c.23,22.22-22.28,37.65-43.12,29.62-2.68-1.03-5.15-2.52-7.51-4.12l-6.41,6.38-.48-.1-6.01-6.07,6.45-6.67C-6.35,33.61,1.32,8.71,21.57,1.77,24.8.67,28.1.27,31.49,0c.16-.04.46.2.46.28v8.61l-.32.26c-7.67.08-14.84,4.13-18.9,10.57-6.3,9.99-3.83,23.32,5.65,30.31,13.66,10.07,33.21,2.1,35.91-14.59.17-1.04.09-2.32.25-3.2.04-.21.1-.36.29-.48h8.71Z"/>
  <path class="st1_wsConnect" d="M51.03,6.33c.17-.04.31-.06.45.07l5.84,5.84.07.45-13.1,13.15c.27,1.29.79,2.47,1,3.78,1.91,11.71-11.12,20.14-20.98,13.52-12.37-8.31-4.28-28.02,11.05-24.45.55.13,2.2.87,2.52.74l13.15-13.1ZM35.14,28.59c-2.31-2.31-6.57-1.37-7.53,1.8-1.47,4.81,4.58,8.11,7.79,4.34,1.45-1.7,1.31-4.58-.26-6.15Z"/>
</svg>